#!OML:ASF H:\MichaelJackson\Top Level 1\Subject 1\Session 1\male.ASF
:FULLY-SPECIFIED
:DEGREES
87
root 5.93507 15.1898 -15.4404 30.9893 6.04115 1.48562
lowerback 16.1972 0.536891 1.2746
upperback 0.97842 0.849644 -1.09012
thorax -8.01104 0.34288 -2.08595
lowerneck -8.81977 -2.87019 -0.189303
upperneck -26.0789 -3.10059 4.14528
head -6.4772 -1.75488 1.46498
rclavicle -3.69739e-014 -4.96962e-015
rhumerus -32.7888 20.0243 -97.2671
rradius 55.0239
rwrist -1.62783
rhand -40.1297 -28.8734
rfingers 7.12502
rthumb -13.0928 -58.4424
lclavicle -3.69739e-014 -4.96962e-015
lhumerus -33.6336 -36.0246 97.905
lradius 56.0969
lwrist 25.0476
lhand -16.2284 5.64729
lfingers 7.12502
lthumb 9.97978 35.3907
rfemur -67.7156 3.83784 18.5959
rtibia 69.1559
rfoot -27.669 -10.7803
rtoes 10.217
lfemur -66.8994 -8.44725 -19.584
ltibia 67.0577
lfoot -30.0967 8.05383
ltoes 10.86
88
root 5.92528 15.1635 -15.4308 31.0898 6.2086 1.71702
lowerback 16.5348 0.513463 1.1603
upperback 1.10933 0.799236 -1.10838
thorax -8.06067 0.322747 -2.03373
lowerneck -8.66022 -2.89243 -0.173361
upperneck -26.3132 -3.13441 4.09984
head -6.58125 -1.77267 1.45538
rclavicle 4.37326e-015 1.39149e-015
rhumerus -32.1605 20.5582 -96.9732
rradius 55.2095
rwrist -2.21324
rhand -40.2786 -29.1968
rfingers 7.12502
rthumb -13.2363 -58.7566
lclavicle 4.37326e-015 1.39149e-015
lhumerus -32.7567 -37.232 97.7948
lradius 55.7374
lwrist 25.6293
lhand -17.0608 5.50786
lfingers 7.12502
lthumb 9.1767 35.2882
rfemur -68.2991 3.41559 18.542
rtibia 70.4082
rfoot -27.9146 -10.729
rtoes 8.70068
lfemur -67.3452 -8.42343 -19.8634
ltibia 68.0448
lfoot -30.5224 8.0165
ltoes 10.2438
89
root 5.91545 15.0607 -15.4133 31.1447 6.37273 1.94267
lowerback 16.8456 0.491587 1.0491
upperback 1.23568 0.751018 -1.12267
thorax -8.09965 0.303759 -1.97872
lowerneck -8.51502 -2.90731 -0.159597
upperneck -26.497 -3.1618 4.04154
head -6.66687 -1.7855 1.44063
rclavicle 3.97569e-016 -1.76918e-014
rhumerus -31.5072 21.0746 -96.6428
rradius 55.3517
rwrist -2.74324
rhand -40.4106 -29.5661
rfingers 7.12502
rthumb -13.3636 -59.1175
lclavicle 3.97569e-016 -1.76918e-014
lhumerus -31.7911 -38.4359 97.637
lradius 55.3037
lwrist 26.1579
lhand -18.1211 5.33458
lfingers 7.12502
lthumb 8.15346 35.1573
rfemur -69.1786 2.99918 18.506
rtibia 72.046
rfoot -28.1754 -10.6084
rtoes 7.1698
lfemur -68.0432 -8.37742 -20.174
ltibia 69.3736
lfoot -31.0176 7.92853
ltoes 9.72574
90
root 5.90573 14.9557 -15.392 31.1524 6.5401 2.16286
lowerback 17.1283 0.465797 0.94274
upperback 1.3611 0.698621 -1.12905
thorax -8.12368 0.282929 -1.91614
lowerneck -8.3997 -2.91206 -0.151636
upperneck -26.6205 -3.17955 3.96847
head -6.72809 -1.7912 1.42013
rclavicle -2.84262e-014 1.63003e-014
rhumerus -30.821 21.5849 -96.2665
rradius 55.4606
rwrist -3.20118
rhand -40.5129 -29.9698
rfingers 7.12502
rthumb -13.4622 -59.5148
lclavicle -2.84262e-014 1.63003e-014
lhumerus -30.7095 -39.5956 97.4073
lradius 54.7884
lwrist 26.5943
lhand -19.357 5.13075
lfingers 7.12502
lthumb 6.96056 34.9963
rfemur -70.0248 2.5633 18.4929
rtibia 73.731
rfoot -28.4196 -10.443
rtoes 5.59802
lfemur -68.6746 -8.30022 -20.5071
ltibia 70.7194
lfoot -31.5678 7.79777
ltoes 9.2869
91
root 5.89647 14.8486 -15.3668 31.1053 6.71362 2.37625
lowerback 17.3942 0.433005 0.858018
upperback 1.48144 0.640429 -1.13872
thorax -8.14324 0.258524 -1.86748
lowerneck -8.29874 -2.9099 -0.135021
upperneck -26.6861 -3.19103 3.88674
head -6.76818 -1.7934 1.39378
rclavicle 5.1684e-015 -2.08724e-014
rhumerus -30.1079 22.0638 -95.8537
rradius 55.5456
rwrist -3.55656
rhand -40.558 -30.4152
rfingers 7.12502
rthumb -13.5057 -59.9573
lclavicle 5.1684e-015 -2.08724e-014
lhumerus -29.5134 -40.6791 97.0787
lradius 54.1974
lwrist 26.9077
lhand -20.6671 4.98477
lfingers 7.12502
lthumb 5.69575 34.8882
rfemur -70.8519 2.10052 18.5207
rtibia 75.5809
rfoot -28.7244 -10.2636
rtoes 4.11135
lfemur -69.2579 -8.20233 -20.8608
ltibia 72.2136
lfoot -32.2713 7.67042
ltoes 8.92875
92
root 5.88758 14.7402 -15.3379 30.9925 6.89403 2.58612
lowerback 17.6498 0.391423 0.784956
upperback 1.60196 0.572591 -1.14968
thorax -8.15668 0.229159 -1.82402
lowerneck -8.20883 -2.90044 -0.110003
upperneck -26.7037 -3.19498 3.79844
head -6.7909 -1.7918 1.36252
rclavicle -2.5842e-015 -7.7526e-015
rhumerus -29.3656 22.5089 -95.3938
rradius 55.6243
rwrist -3.80217
rhand -40.5191 -30.8895
rfingers 7.12502
rthumb -13.4682 -60.434
lclavicle -2.5842e-015 -7.7526e-015
lhumerus -28.167 -41.605 96.6149
lradius 53.5557
lwrist 27.1347
lhand -21.7841 5.093
lfingers 7.12502
lthumb 4.61726 35.0227
rfemur -71.6106 1.6107 18.6006
rtibia 77.4497
rfoot -28.9795 -10.1106
rtoes 2.69281
lfemur -69.7416 -8.09268 -21.2346
ltibia 73.7027
lfoot -33.0076 7.56026
ltoes 8.58545
93
root 5.87919 14.6307 -15.3056 30.8189 7.08067 2.79346
lowerback 17.8826 0.342269 0.715304
upperback 1.72596 0.495512 -1.15848
thorax -8.15351 0.195503 -1.77718
lowerneck -8.12327 -2.88562 -0.0862127
upperneck -26.6897 -3.19179 3.71182
head -6.80238 -1.78647 1.33113
rclavicle -1.43125e-014 4.77083e-015
rhumerus -28.5908 22.9131 -94.8698
rradius 55.7218
rwrist -3.96699
rhand -40.3987 -31.3473
rfingers 7.12502
rthumb -13.3521 -60.8995
lclavicle -1.43125e-014 4.77083e-015
lhumerus -26.6914 -42.3511 96.0302
lradius 52.8366
lwrist 27.1574
lhand -22.782 5.2066
lfingers 7.12502
lthumb 3.65359 35.155
rfemur -72.302 1.09892 18.7352
rtibia 79.3264
rfoot -29.1919 -9.99914
rtoes 1.45423
lfemur -70.1313 -7.9815 -21.6233
ltibia 75.1842
lfoot -33.7636 7.48456
ltoes 8.24544
94
root 5.87111 14.5204 -15.27 30.5893 7.27148 2.99713
lowerback 18.0919 0.288058 0.649605
upperback 1.84991 0.412105 -1.17155
thorax -8.13716 0.15874 -1.73497
lowerneck -8.05191 -2.87021 -0.0562027
upperneck -26.6375 -3.18676 3.63459
head -6.79867 -1.78117 1.30075
rclavicle 2.46493e-014 -2.18663e-015
rhumerus -27.8002 23.2462 -94.2838
rradius 55.8789
rwrist -4.10659
rhand -40.1715 -31.761
rfingers 7.12502
rthumb -13.1331 -61.3274
lclavicle 2.46493e-014 -2.18663e-015
lhumerus -25.0962 -42.8851 95.3142
lradius 52.0798
lwrist 27.0384
lhand -23.4699 5.46121
lfingers 7.12502
lthumb 2.98933 35.42
rfemur -72.9244 0.576293 18.9232
rtibia 81.2002
rfoot -29.3649 -9.95697
rtoes 0.368328
lfemur -70.4354 -7.87583 -22.0134
ltibia 76.6581
lfoot -34.5254 7.44542
ltoes 7.89283
95
root 5.86317 14.4103 -15.2314 30.3123 7.4641 3.19699
lowerback 18.2707 0.232619 0.584246
upperback 1.97136 0.326575 -1.19041
thorax -8.10642 0.120949 -1.69801
lowerneck -8.00366 -2.85948 -0.0198919
upperneck -26.541 -3.18659 3.57053
head -6.77619 -1.77938 1.27261
rclavicle -2.66371e-014 -1.98785e-015
rhumerus -27.0177 23.521 -93.6299
rradius 56.142
rwrist -4.26281
rhand -39.8744 -32.1471
rfingers 7.12502
rthumb -12.8467 -61.7318
lclavicle -2.66371e-014 -1.98785e-015
lhumerus -23.4285 -43.218 94.4808
lradius 51.3543
lwrist 26.8452
lhand -23.8125 5.7595
lfingers 7.12502
lthumb 2.65847 35.7227
rfemur -73.4753 0.0585963 19.1493
rtibia 83.0542
rfoot -29.5024 -9.99581
rtoes -0.603927
lfemur -70.6679 -7.78336 -22.3902
ltibia 78.1228
lfoot -35.2771 7.41742
ltoes 7.57077
96
root 5.85523 14.3013 -15.1899 29.9989 7.64756 3.38575
lowerback 18.3989 0.186688 0.502112
upperback 2.09165 0.250476 -1.20514
thorax -8.04867 0.0884415 -1.64854
lowerneck -7.97411 -2.85667 0.00908199
upperneck -26.4128 -3.19495 3.5216
head -6.73946 -1.78187 1.25007
rclavicle -1.41137e-014 3.57812e-014
rhumerus -26.2651 23.7741 -92.8784
rradius 56.5814
rwrist -4.55043
rhand -39.5374 -32.5477
rfingers 7.12502
rthumb -12.5218 -62.1525
lclavicle -1.41137e-014 3.57812e-014
lhumerus -21.7231 -43.3922 93.5574
lradius 50.7324
lwrist 26.6967
lhand -23.8705 5.96918
lfingers 7.12502
lthumb 2.60247 35.9331
rfemur -73.9594 -0.427151 19.3931
rtibia 84.8746
rfoot -29.6175 -10.1018
rtoes -1.48742
lfemur -70.8432 -7.69927 -22.7394
ltibia 79.5813
lfoot -36.0013 7.38982
ltoes 7.2599
97
root 5.84711 14.1942 -15.1455 29.6605 7.81532 3.56212
lowerback 18.4738 0.153331 0.408393
upperback 2.20134 0.188034 -1.22466
thorax -7.97258 0.0627006 -1.60044
lowerneck -7.95774 -2.86435 0.0358494
upperneck -26.2498 -3.21441 3.49304
head -6.68837 -1.79073 1.2341
rclavicle 3.00165e-014 -1.0138e-014
rhumerus -25.579 24.0326 -92.033
rradius 57.2649
rwrist -5.06567
rhand -39.204 -32.9937
rfingers 7.12502
rthumb -12.2004 -62.6179
lclavicle 3.00165e-014 -1.0138e-014
lhumerus -20.0374 -43.4794 92.5522
lradius 50.3224
lwrist 26.7559
lhand -23.7249 6.02037
lfingers 7.12502
lthumb 2.74306 35.9825
rfemur -74.3797 -0.856874 19.6258
rtibia 86.6454
rfoot -29.706 -10.2729
rtoes -2.39037
lfemur -70.9761 -7.62707 -23.0501
ltibia 81.0296
lfoot -36.6817 7.34937
ltoes 6.95866
